<?xml version="1.0" encoding="UTF-8" standalone="no"?>
<!-- Created with Inkscape (http://www.inkscape.org/) -->

<svg>
  <g
     inkscape:label="Layer 1"
     inkscape:groupmode="layer"
     id="layer1"
     transform="translate(-4.641039,-6.8748916)">
    <g
       style="font-style:normal;font-weight:normal;font-size:40px;line-height:125%;font-family:sans-serif;letter-spacing:0px;word-spacing:0px;fill:#000000;fill-opacity:1;stroke:none;stroke-width:1px;stroke-linecap:butt;stroke-linejoin:miter;stroke-opacity:1"
       id="text3336"
       transform="translate(-16.554012,2.3648589)">
      <path class="title" fill-opacity="0" stroke="#000" stroke-width="1.5"
         d="m 21.195051,38.611595 q 0,-2.617187 1.40625,-4.453125 1.40625,-1.835937 3.515625,-3.007812 2.148438,-1.171875 4.609375,-1.796875 2.5,-0.664063 4.648438,-0.898438 -1.40625,-1.679687 -2.695313,-3.59375 -1.289062,-1.914062 -2.265625,-3.90625 -0.9375,-2.03125 -1.523437,-4.0625 -0.585938,-2.070312 -0.585938,-4.0625 0,-1.796875 0.585938,-3.3203123 0.625,-1.5234375 1.71875,-2.6171875 1.09375,-1.1328125 2.578125,-1.7578125 1.523437,-0.625 3.28125,-0.625 1.601562,0 2.929687,0.7421875 1.367188,0.703125 2.226563,1.953125 0.15625,-0.078125 0.46875,-0.1953125 0.3125,-0.15625 0.625,-0.3125 0.351562,-0.15625 0.625,-0.2734375 0.3125,-0.1171875 0.507812,-0.1953125 0.546875,-0.15625 0.78125,0.1171875 0.273438,0.234375 0.3125,0.5859375 0.03906,0.3515625 -0.15625,0.703125 -0.195312,0.3125 -0.507812,0.3125 -0.429688,0 -0.585938,-0.3125 -0.117187,-0.3125 0.07813,-0.5078125 -0.46875,0.078125 -0.820312,0.2734375 -0.351563,0.1953125 -0.898438,0.5078125 0.03906,0.1953125 0.117188,0.625 0.117187,0.390625 0.15625,0.8984375 0.03906,0.46875 0,1.0156253 -0.03906,0.546875 -0.234375,1.015625 -0.15625,0.429687 -0.546875,0.742187 -0.390625,0.3125 -0.820313,0.429688 -0.429687,0.117187 -0.898437,-0.03906 -0.429688,-0.15625 -0.703125,-0.664062 -0.273438,-0.507813 -0.234375,-1.09375 0.07813,-0.625 0.351562,-1.2109378 0.3125,-0.5859375 0.742188,-1.1328125 0.46875,-0.546875 1.015625,-0.9375 -0.46875,-0.6640625 -1.015625,-1.09375 -0.546875,-0.46875 -1.132813,-0.7421875 -0.585937,-0.2734375 -1.132812,-0.390625 -0.546875,-0.1171875 -0.976563,-0.1171875 -1.367187,0 -2.539062,0.625 -1.171875,0.625 -2.03125,1.6796875 -0.820313,1.015625 -1.289063,2.3046875 -0.46875,1.2500003 -0.46875,2.5390623 0,2.265625 0.820313,4.414063 0.859375,2.148437 2.03125,4.140625 1.210937,1.992187 2.5,3.828125 1.289062,1.835937 2.1875,3.476562 0.898437,0 2.070312,-0.07813 1.171875,-0.117187 2.34375,-0.273437 1.210938,-0.15625 2.34375,-0.351563 1.171875,-0.195312 2.03125,-0.351562 0.898438,-0.15625 1.40625,-0.273438 0.507813,-0.117187 0.46875,-0.15625 0.195313,0.07813 0.195313,0.273438 0.03906,0.15625 -0.3125,0.273437 -1.09375,0.351563 -2.617188,0.625 -1.484375,0.273438 -2.96875,0.507813 -1.484375,0.195312 -2.773437,0.3125 -1.25,0.117187 -1.835938,0.15625 1.289063,2.382812 1.367188,5.039062 0.117187,2.617188 -0.859375,4.960938 -0.9375,2.304687 -2.890625,4.0625 -1.914063,1.757812 -4.648438,2.34375 -0.820312,0.195312 -1.914062,0.234375 -1.054688,0.07813 -2.1875,-0.117188 -1.09375,-0.15625 -2.1875,-0.625 -1.054688,-0.429687 -1.914063,-1.25 -0.859375,-0.78125 -1.367187,-1.992187 -0.507813,-1.210938 -0.507813,-2.929688 z m 2.109375,-0.742187 q 0,1.289062 0.507813,2.460937 0.546875,1.132813 1.445312,1.992188 0.898438,0.859375 2.070313,1.328125 1.171875,0.507812 2.5,0.507812 1.875,0 3.242187,-0.742187 1.40625,-0.703125 2.34375,-1.914063 0.9375,-1.210937 1.40625,-2.773437 0.46875,-1.5625 0.46875,-3.242188 0.03906,-1.679687 -0.351562,-3.359375 -0.390625,-1.679687 -1.210938,-3.125 -2.1875,0.195313 -4.414062,0.78125 -2.226563,0.546875 -4.023438,1.601563 -1.757812,1.054687 -2.890625,2.65625 -1.09375,1.5625 -1.09375,3.828125 z M 41.390364,8.2600327 q -0.3125,0.234375 -0.664063,0.5859375 -0.351562,0.3515625 -0.625,0.78125 -0.273437,0.4296878 -0.390625,0.8984378 -0.117187,0.429687 0,0.859375 0.3125,0.78125 0.859375,0.703125 0.585938,-0.117188 0.898438,-0.898438 0.273437,-0.742187 0.195312,-1.6406248 -0.03906,-0.8984375 -0.273437,-1.2890625 z"
         style="font-style:normal;font-variant:normal;font-weight:normal;font-stretch:normal;font-family:'Janda Stylish Script';-inkscape-font-specification:'Janda Stylish Script'"
         id="path3341"
         inkscape:connector-curvature="0" />
      <path class="title" fill-opacity="0" stroke="#000" stroke-width="1.5"
         d="m 56.155989,37.400658 q -1.132813,0.898437 -2.34375,1.523437 -1.171875,0.625 -2.65625,0.625 -1.210938,0 -2.148438,-0.46875 -0.9375,-0.46875 -1.601562,-1.25 -0.625,-0.820312 -0.976563,-1.835937 -0.351562,-1.054688 -0.351562,-2.226563 -0.03906,-1.640625 0.390625,-3.28125 0.429687,-1.679687 1.25,-3.007812 0.859375,-1.328125 2.070312,-2.148438 1.210938,-0.820312 2.773438,-0.820312 1.171875,0 1.914062,0.46875 0.78125,0.429687 1.679688,1.210937 0.15625,-0.351562 0.46875,-0.546875 0.3125,-0.234375 0.585937,-0.195312 0.3125,0 0.546875,0.234375 0.234375,0.234375 0.273438,0.742187 -0.117188,2.421875 -0.273438,4.53125 -0.15625,2.070313 -0.234375,3.671875 -0.07813,3.320313 0.3125,4.6875 0.390625,1.328125 1.640625,0.898438 0.625,-0.195313 1.25,-1.015625 0.664063,-0.820313 1.328125,-1.992188 0.664063,-1.210937 1.289063,-2.65625 0.625,-1.445312 1.210937,-2.851562 0.585938,-1.445313 1.09375,-2.734375 0.507813,-1.289063 0.898438,-2.1875 0.15625,0.07813 0.234375,0.234375 0.117187,0.117187 0,0.625 -0.07813,0.507812 -0.429688,1.484375 -0.351562,0.9375 -1.054687,2.65625 -0.351563,0.585937 -0.742188,1.484375 -0.351562,0.859375 -0.820312,1.914062 -0.46875,1.015625 -1.015625,2.070313 -0.507813,1.015625 -1.171875,1.875 -0.664063,0.820312 -1.445313,1.40625 -0.78125,0.546875 -1.71875,0.585937 -0.742187,0 -1.171875,-0.351562 -0.390625,-0.390625 -0.625,-0.9375 -0.195312,-0.546875 -0.3125,-1.210938 -0.07813,-0.664062 -0.117187,-1.210937 z m -7.5,-4.492188 q 0,0.664063 0.117187,1.679688 0.117188,1.015625 0.429688,1.953125 0.3125,0.9375 0.898437,1.640625 0.625,0.664062 1.640625,0.664062 0.507813,0 1.210938,-0.234375 0.742187,-0.234375 1.40625,-0.625 0.664062,-0.390625 1.171875,-0.898437 0.507812,-0.507813 0.625,-1.09375 0.117187,-1.289063 0.15625,-2.1875 0.07813,-0.898438 0.07813,-2.03125 0,-1.09375 -0.07813,-1.992188 -0.03906,-0.898437 -0.15625,-2.1875 -0.429688,-1.054687 -1.289063,-1.71875 -0.820312,-0.664062 -1.953125,-0.664062 -1.25,0 -2.070312,0.859375 -0.820313,0.859375 -1.328125,2.070312 -0.46875,1.210938 -0.664063,2.539063 -0.195312,1.289062 -0.195312,2.226562 z"
         style="font-style:normal;font-variant:normal;font-weight:normal;font-stretch:normal;font-family:'Janda Stylish Script';-inkscape-font-specification:'Janda Stylish Script'"
         id="path3343"
         inkscape:connector-curvature="0" />
      <path class="title" fill-opacity="0" stroke="#000" stroke-width="1.5"
         d="m 61.585676,22.674095 q -0.46875,-0.742187 -0.742187,-1.601562 -0.3125,-0.859375 -0.351563,-1.679688 -0.03906,-0.859375 0.15625,-1.601562 0.15625,-0.742188 0.625,-1.25 0.3125,-0.351563 0.703125,-0.234375 0.390625,0.117187 0.351563,0.664062 -0.03906,0.390625 -0.273438,0.664063 -0.234375,0.234375 -0.625,-0.03906 -0.273437,0.3125 -0.351562,0.820313 -0.07813,0.507812 0,1.132812 0.03906,0.625 0.234375,1.289063 0.195312,0.625 0.546875,1.210937 l -0.273438,0.625 z m 0.273438,-0.625 q 0.46875,0.859375 1.25,1.484375 0.78125,0.585938 1.796875,0.664063 0,-0.898438 -0.03906,-2.695313 0,-1.835937 0.07813,-3.984375 0.07813,-2.1875 0.390625,-4.453125 0.3125,-2.304687 1.015625,-4.1796873 0.742188,-1.875 1.914063,-3.046875 1.210937,-1.2109375 3.085937,-1.2109375 1.484375,0 2.109375,1.2890625 0.664063,1.2890625 0.664063,3.3203125 0.03906,1.9921878 -0.507813,4.4140628 -0.546875,2.382812 -1.445312,4.609375 -0.898438,2.226562 -2.070313,3.984375 -1.171875,1.71875 -2.421875,2.382812 0.03906,0.703125 0.15625,2.148438 0.15625,1.40625 0.390625,3.125 0.234375,1.71875 0.546875,3.554687 0.3125,1.796875 0.703125,3.28125 0.429688,1.484375 0.9375,2.460938 0.507813,0.976562 1.09375,1.015625 0.898438,0.07813 1.757813,-0.625 0.898437,-0.703125 1.679687,-1.875 0.820313,-1.171875 1.523438,-2.65625 0.742187,-1.484375 1.328125,-2.929688 0.585937,-1.484375 1.015625,-2.773437 0.46875,-1.328125 0.78125,-2.148438 0.234375,-0.15625 0.3125,-0.07813 0.07813,0.03906 0.07813,0.195313 0.03906,0.15625 0,0.390625 0,0.195312 0,0.351562 -0.3125,0.9375 -0.78125,2.265625 -0.46875,1.289063 -1.09375,2.734375 -0.585938,1.40625 -1.367188,2.851563 -0.742187,1.40625 -1.640625,2.539062 -0.859375,1.132813 -1.914062,1.835938 -1.015625,0.703125 -2.1875,0.742187 -1.210938,0.03906 -2.070313,-0.820312 -0.859375,-0.898438 -1.484375,-2.109375 -0.585937,-1.210938 -0.9375,-2.421875 -0.351562,-1.25 -0.546875,-1.953125 -0.390625,-1.367188 -0.664062,-3.632813 -0.234375,-2.304687 -0.390625,-5.351562 -1.09375,-0.07813 -1.914063,-0.625 -0.859375,-0.585938 -1.40625,-1.445313 l 0.273438,-0.625 z M 71.820051,5.5647202 q -1.09375,0 -1.835937,1.2109375 -0.703125,1.171875 -1.171875,3.0078125 -0.46875,1.8359378 -0.742188,4.0624998 -0.234375,2.1875 -0.351562,4.257813 -0.07813,2.03125 -0.117188,3.671875 0,1.601562 0,2.265625 1.015625,-0.585938 1.914063,-2.1875 0.898437,-1.601563 1.601562,-3.632813 0.742188,-2.070312 1.210938,-4.296875 0.46875,-2.226562 0.585937,-4.0624998 0.15625,-1.875 -0.117187,-3.0859375 -0.234375,-1.2109375 -0.976563,-1.2109375 z"
         style="font-style:normal;font-variant:normal;font-weight:normal;font-stretch:normal;font-family:'Janda Stylish Script';-inkscape-font-specification:'Janda Stylish Script'"
         id="path3345"
         inkscape:connector-curvature="0" />
      <path class="title" fill-opacity="0" stroke="#000" stroke-width="1.5"
         d="m 87.366926,41.541283 q -1.367187,0 -2.421875,-0.585938 -1.054687,-0.625 -1.71875,-1.5625 -0.664062,-0.976562 -0.898437,-2.148437 -0.234375,-1.210938 0,-2.421875 0.273437,-1.210938 1.015625,-2.265625 0.742187,-1.09375 2.03125,-1.796875 -0.117188,-0.03906 -0.78125,-0.351563 -0.625,-0.351562 -1.445313,-0.742187 -0.78125,-0.429688 -1.523437,-0.820313 -0.742188,-0.429687 -1.054688,-0.625 -0.3125,-0.15625 -0.664062,-0.351562 -0.351563,-0.234375 -0.664063,-0.507813 -0.273437,-0.273437 -0.429687,-0.625 -0.15625,-0.351562 -0.07813,-0.78125 0.15625,-0.507812 0.46875,-0.664062 0.3125,-0.15625 0.546875,-0.03906 0.234375,0.07813 0.3125,0.390625 0.117187,0.273438 -0.07813,0.703125 -0.15625,0.3125 0.273437,0.78125 0.46875,0.46875 1.328125,1.015625 0.859375,0.507813 2.03125,1.09375 1.171875,0.546875 2.460938,1.132813 1.054687,-0.46875 2.539062,-0.976563 1.523438,-0.546875 2.96875,-1.015625 1.484375,-0.46875 2.65625,-0.820312 1.210938,-0.351563 1.640625,-0.46875 0.07813,0 0.3125,0.03906 0.273438,0 0.15625,0.195313 -0.625,0.117187 -1.953125,0.507812 -1.328125,0.390625 -2.851562,0.898438 -1.484375,0.46875 -2.890625,1.015625 -1.40625,0.507812 -2.109375,0.859375 0.742187,0.234375 1.601562,0.742187 0.859375,0.46875 1.601563,1.210938 0.742187,0.703125 1.25,1.640625 0.546875,0.898437 0.625,1.992187 0.195312,2.539063 -0.898438,3.945313 -1.09375,1.40625 -3.359375,1.40625 z m -1.523437,-10.625 q -1.054688,0.585937 -1.679688,1.5625 -0.625,0.9375 -0.898437,2.070312 -0.234375,1.09375 -0.117188,2.226563 0.15625,1.132812 0.625,2.070312 0.507813,0.9375 1.328125,1.5625 0.859375,0.585938 2.03125,0.625 0.703125,0.03906 1.09375,-0.429687 0.429688,-0.507813 0.625,-1.210938 0.195313,-0.742187 0.234375,-1.523437 0.03906,-0.820313 0.03906,-1.40625 0,-0.742188 -0.234375,-1.5625 -0.234375,-0.859375 -0.664063,-1.640625 -0.429687,-0.78125 -1.054687,-1.40625 -0.585938,-0.625 -1.328125,-0.9375 z"
         style="font-style:normal;font-variant:normal;font-weight:normal;font-stretch:normal;font-family:'Janda Stylish Script';-inkscape-font-specification:'Janda Stylish Script'"
         id="path3347"
         inkscape:connector-curvature="0" />
      <path class="title" fill-opacity="0" stroke="#000" stroke-width="1.5"
         d="m 95.140364,27.830345 q 0.07813,-0.664062 0.234375,-1.289062 0.15625,-0.664063 0.390625,-1.132813 0.273437,-0.46875 0.585937,-0.664062 0.3125,-0.234375 0.742188,-0.07813 0.507812,0.117187 0.625,0.898437 0.117187,0.78125 0,1.953125 -0.07813,1.171875 -0.3125,2.65625 -0.195313,1.484375 -0.390625,3.007813 -0.15625,1.484375 -0.195313,2.929687 -0.03906,1.40625 0.195313,2.460938 0.273437,1.054687 0.898437,1.679687 0.625,0.585938 1.796875,0.46875 0.820314,0 1.640624,-0.820312 0.82031,-0.859375 1.60156,-2.148438 0.78125,-1.328125 1.48438,-2.929687 0.70312,-1.601563 1.28906,-3.125 0.625,-1.523438 1.05469,-2.734375 0.42969,-1.25 0.70312,-1.875 0.0781,-0.15625 0.15625,0.07813 0.0781,0.234375 0.23438,0.234375 -0.27344,1.210937 -0.82031,2.773437 -0.50782,1.523438 -1.17188,3.125 -0.625,1.601563 -1.40625,3.125 -0.78125,1.523438 -1.64062,2.695313 -0.82032,1.132812 -1.67969,1.796875 -0.85938,0.664062 -1.679689,0.507812 -2.070312,0.03906 -3.085937,-1.171875 -1.015625,-1.210937 -1.367188,-3.125 -0.351562,-1.953125 -0.234375,-4.375 0.15625,-2.460937 0.351563,-4.921875 z m 0.585937,-7.617187 q -0.15625,-0.234375 -0.117187,-0.625 0.07813,-0.429688 0.3125,-0.78125 0.234375,-0.390625 0.625,-0.664063 0.390625,-0.3125 0.9375,-0.3125 0.429687,0 0.625,0.273438 0.195312,0.273437 0.234375,0.585937 0.03906,0.664063 -0.546875,1.289063 -0.546875,0.625 -1.25,0.625 -0.546875,0 -0.820313,-0.390625 z"
         style="font-style:normal;font-variant:normal;font-weight:normal;font-stretch:normal;font-family:'Janda Stylish Script';-inkscape-font-specification:'Janda Stylish Script'"
         id="path3349"
         inkscape:connector-curvature="0" />
      <path class="title" fill-opacity="0" stroke="#000" stroke-width="1.5"
         d="m 106.27318,23.37722 q -1.13282,0.234375 -2.5,0.3125 -1.40625,0.07813 -2.65625,-0.117187 -1.250004,-0.234375 -2.109379,-0.820313 -0.898437,-0.585937 -1.054687,-1.757812 0.07813,-0.195313 0.351562,-0.3125 0.234375,-0.117188 0.390625,0.195312 -0.07813,0.703125 0.664063,1.25 0.703126,0.546875 1.874996,0.820313 1.13282,0.234375 2.5,0.15625 1.32813,-0.07813 2.53907,-0.625 0,-0.625 0.0391,-1.484375 0.0391,-0.898438 0.11719,-1.835938 0.0781,-0.976562 0.15625,-1.875 0.11718,-0.9375 0.23437,-1.601562 0.15625,-0.976563 0.27344,-1.601563 0.11719,-0.664062 0.27344,-1.054687 0.19531,-0.390625 0.42968,-0.585938 0.27344,-0.234375 0.625,-0.390625 0.3125,-0.07813 0.70313,0.195313 0.39062,0.273437 0.39062,0.78125 -0.0781,0.664062 -0.23437,1.445312 -0.15625,0.78125 -0.35156,1.757813 -0.15625,0.976562 -0.27344,2.1875 -0.11719,1.171875 -0.11719,2.578125 0.85938,-0.46875 2.14844,-1.25 1.32812,-0.820313 2.73437,-1.40625 1.44532,-0.585938 2.8125,-0.625 1.36719,-0.07813 2.38282,0.9375 0.19531,0.117187 0.0391,0.390625 -0.15625,0.234375 -0.27344,0.07813 -0.50781,-0.703125 -1.32812,-0.820313 -0.82032,-0.15625 -1.79688,0.07813 -0.97656,0.195313 -2.03125,0.664063 -1.01562,0.46875 -1.95312,1.015625 -0.89844,0.546875 -1.64063,1.09375 -0.74219,0.507812 -1.09375,0.78125 0,0.117187 -0.0391,0.859375 0,0.703125 0,1.5625 0,0.820312 -0.0391,1.5625 0,0.703125 0,0.859375 0,0.78125 0,2.148437 0,1.367188 0.0781,2.96875 0.11719,1.5625 0.35156,3.203125 0.23438,1.640625 0.70313,2.96875 0.46875,1.289063 1.21094,2.148438 0.78125,0.820312 1.91406,0.820312 1.21094,-0.3125 2.1875,-1.171875 1.01562,-0.898437 1.79687,-2.070312 0.78125,-1.210938 1.36719,-2.617188 0.625,-1.445312 1.05469,-2.851562 0.46875,-1.445313 0.74219,-2.734375 0.3125,-1.289063 0.50781,-2.265625 0.11719,-0.195313 0.23437,-0.07813 0.15625,0.07813 0.0781,0.820312 -0.15625,1.210938 -0.54688,2.734375 -0.35156,1.484375 -0.9375,3.046875 -0.58593,1.523438 -1.36718,2.96875 -0.78125,1.40625 -1.75782,2.5 -0.97656,1.09375 -2.14843,1.679688 -1.13282,0.585937 -2.42188,0.429687 -1.67969,-0.195312 -2.73437,-1.171875 -1.01563,-0.976562 -1.60157,-2.421875 -0.58593,-1.484375 -0.78125,-3.320312 -0.19531,-1.835938 -0.23437,-3.75 0,-1.953125 0.0391,-3.867188 0.0781,-1.914062 0.0781,-3.515625 z"
         style="font-style:normal;font-variant:normal;font-weight:normal;font-stretch:normal;font-family:'Janda Stylish Script';-inkscape-font-specification:'Janda Stylish Script'"
         id="path3351"
         inkscape:connector-curvature="0" />
      <path class="title" fill-opacity="0" stroke="#000" stroke-width="1.5"
         d="m 128.73411,37.400658 q -1.13281,0.898437 -2.34375,1.523437 -1.17187,0.625 -2.65625,0.625 -1.21093,0 -2.14843,-0.46875 -0.9375,-0.46875 -1.60157,-1.25 -0.625,-0.820312 -0.97656,-1.835937 -0.35156,-1.054688 -0.35156,-2.226563 -0.0391,-1.640625 0.39062,-3.28125 0.42969,-1.679687 1.25,-3.007812 0.85938,-1.328125 2.07032,-2.148438 1.21093,-0.820312 2.77343,-0.820312 1.17188,0 1.91407,0.46875 0.78125,0.429687 1.67968,1.210937 0.15625,-0.351562 0.46875,-0.546875 0.3125,-0.234375 0.58594,-0.195312 0.3125,0 0.54688,0.234375 0.23437,0.234375 0.27343,0.742187 -0.11718,2.421875 -0.27343,4.53125 -0.15625,2.070313 -0.23438,3.671875 -0.0781,3.320313 0.3125,4.6875 0.39063,1.328125 1.64063,0.898438 0.625,-0.195313 1.25,-1.015625 0.66406,-0.820313 1.32812,-1.992188 0.66406,-1.210937 1.28906,-2.65625 0.625,-1.445312 1.21094,-2.851562 0.58594,-1.445313 1.09375,-2.734375 0.50781,-1.289063 0.89844,-2.1875 0.15625,0.07813 0.23437,0.234375 0.11719,0.117187 0,0.625 -0.0781,0.507812 -0.42968,1.484375 -0.35157,0.9375 -1.05469,2.65625 -0.35156,0.585937 -0.74219,1.484375 -0.35156,0.859375 -0.82031,1.914062 -0.46875,1.015625 -1.01563,2.070313 -0.50781,1.015625 -1.17187,1.875 -0.66406,0.820312 -1.44531,1.40625 -0.78125,0.546875 -1.71875,0.585937 -0.74219,0 -1.17188,-0.351562 -0.39062,-0.390625 -0.625,-0.9375 -0.19531,-0.546875 -0.3125,-1.210938 -0.0781,-0.664062 -0.11719,-1.210937 z m -7.5,-4.492188 q 0,0.664063 0.11719,1.679688 0.11719,1.015625 0.42969,1.953125 0.3125,0.9375 0.89844,1.640625 0.625,0.664062 1.64062,0.664062 0.50781,0 1.21094,-0.234375 0.74219,-0.234375 1.40625,-0.625 0.66406,-0.390625 1.17187,-0.898437 0.50782,-0.507813 0.625,-1.09375 0.11719,-1.289063 0.15625,-2.1875 0.0781,-0.898438 0.0781,-2.03125 0,-1.09375 -0.0781,-1.992188 -0.0391,-0.898437 -0.15625,-2.1875 -0.42968,-1.054687 -1.28906,-1.71875 -0.82031,-0.664062 -1.95312,-0.664062 -1.25,0 -2.07032,0.859375 -0.82031,0.859375 -1.32812,2.070312 -0.46875,1.210938 -0.66406,2.539063 -0.19532,1.289062 -0.19532,2.226562 z"
         style="font-style:normal;font-variant:normal;font-weight:normal;font-stretch:normal;font-family:'Janda Stylish Script';-inkscape-font-specification:'Janda Stylish Script'"
         id="path3353"
         inkscape:connector-curvature="0" />
    </g>
  </g>
</svg>
